<svg xmlns="http://www.w3.org/2000/svg" viewBox="0 0 394 79" fill="white"><path d="M261.919 0.0330722H330.547V12.7H303.323V79.339H289.71V12.7H261.919V0.0330722Z"></path><path d="M149.052 0.0330722V12.7H94.0421V33.0772H138.281V45.7441H94.0421V66.6721H149.052V79.339H80.43V12.7H80.4243V0.0330722H149.052Z"></path><path d="M183.32 0.0661486H165.506L229.312 79.3721H247.178L215.271 39.7464L247.127 0.126654L229.312 0.154184L206.352 28.6697L183.32 0.0661486Z"></path><path d="M201.6 56.7148L192.679 45.6229L165.455 79.4326H183.32L201.6 56.7148Z"></path><path clip-rule="evenodd" d="M80.907 79.339L17.0151 0H0V79.3059H13.6121V16.9516L63.8067 79.339H80.907Z" fill-rule="evenodd"></path><path d="M333.607 78.8546C332.61 78.8546 331.762 78.5093 331.052 77.8186C330.342 77.1279 329.991 76.2917 330 75.3011C329.991 74.3377 330.342 73.5106 331.052 72.8199C331.762 72.1292 332.61 71.7838 333.607 71.7838C334.566 71.7838 335.405 72.1292 336.115 72.8199C336.835 73.5106 337.194 74.3377 337.204 75.3011C337.194 75.9554 337.028 76.5552 336.696 77.0914C336.355 77.6368 335.922 78.064 335.377 78.373C334.842 78.6911 334.252 78.8546 333.607 78.8546Z"></path><path d="M356.84 45.4453H362.872V68.6846C362.863 70.8204 362.401 72.6472 361.498 74.1832C360.585 75.7191 359.321 76.8914 357.698 77.7185C356.084 78.5364 354.193 78.9546 352.044 78.9546C350.079 78.9546 348.318 78.6001 346.75 77.9094C345.182 77.2187 343.937 76.1826 343.024 74.8193C342.101 73.456 341.649 71.7565 341.649 69.7207H347.691C347.7 70.6114 347.903 71.3838 348.29 72.0291C348.677 72.6744 349.212 73.1651 349.895 73.5105C350.586 73.8559 351.38 74.0286 352.274 74.0286C353.243 74.0286 354.073 73.8286 354.746 73.4196C355.419 73.0197 355.936 72.4199 356.296 71.6201C356.646 70.8295 356.831 69.8479 356.84 68.6846V45.4453Z"></path><path d="M387.691 54.5338C387.544 53.1251 386.898 52.0254 385.773 51.2438C384.638 50.4531 383.172 50.0623 381.373 50.0623C380.11 50.0623 379.022 50.2532 378.118 50.6258C377.214 51.0075 376.513 51.5164 376.033 52.1617C375.554 52.807 375.314 53.5432 375.295 54.3703C375.295 55.061 375.461 55.6608 375.784 56.1607C376.107 56.6696 376.54 57.0968 377.103 57.4422C377.656 57.7966 378.274 58.0967 378.948 58.3422C379.63 58.5968 380.313 58.8059 381.006 58.9786L384.098 59.7875C385.466 60.1238 386.752 60.5765 387.955 61.1127C389.158 61.6489 390.233 62.3032 391.161 63.0939C392.089 63.8846 392.824 64.821 393.347 65.8936C393.88 66.9572 394.146 68.1844 394.146 69.5749C394.146 71.4291 393.676 73.0747 392.736 74.493C391.796 75.9113 390.424 77.0277 388.606 77.8367C386.798 78.6547 384.581 79.0637 381.964 79.0637C379.346 79.0637 377.055 78.6547 375.127 77.8367C373.2 77.0277 371.7 75.8476 370.621 74.2956C369.542 72.7436 368.946 70.8477 368.828 68.6119H374.842C374.951 69.8116 375.328 70.8021 375.969 71.5928C376.61 72.3926 377.441 72.9924 378.472 73.3923C379.503 73.8013 380.665 74.0013 381.955 74.0013C383.274 74.0013 384.426 73.7922 385.414 73.3741C386.402 72.956 387.17 72.3835 387.719 71.6564C388.269 70.9293 388.543 70.0931 388.543 69.1479C388.543 68.2845 388.306 67.5574 387.822 66.9663C387.338 66.3751 386.649 65.8754 385.745 65.4574C384.842 65.0393 383.761 64.6667 382.495 64.3396L378.726 63.3035C376.019 62.5765 373.884 61.4963 372.32 60.0526C370.756 58.6089 369.974 56.6877 369.974 54.2793C369.974 52.3341 370.52 50.6258 371.612 49.1711C372.695 47.7164 374.182 46.5818 376.064 45.7728C377.946 44.9637 380.095 44.5547 382.495 44.5547C384.932 44.5547 387.062 44.9637 388.897 45.7728C390.732 46.5818 392.172 47.7164 393.209 49.1711C394.246 50.6258 394.782 52.3068 394.81 54.2157H388.842L387.691 54.5338Z"></path></svg>
